<svg width="23" height="23" viewBox="0 0 23 23" fill="none" xmlns="http://www.w3.org/2000/svg">
<g id="Frame" clip-path="url(#clip0_695_52)">
<g id="SVGRepo_iconCarrier">
<path id="Vector" d="M22.7889 21.7654L15.8048 14.7389C17.1065 13.1799 17.8906 11.1739 17.8906 8.98389C17.8906 4.02164 13.8685 -0.000488281 8.90625 -0.000488281C3.944 -0.000488281 -0.078125 4.02164 -0.078125 8.98389C-0.078125 13.9461 3.944 17.9683 8.90625 17.9683C11.1602 17.9683 13.2202 17.1359 14.7978 15.7639L21.7719 22.7817C22.0522 23.062 22.5079 23.062 22.7889 22.7817C23.0699 22.5014 23.0692 22.0472 22.7889 21.7654ZM8.90697 16.543C4.73247 16.543 1.34788 13.1584 1.34788 8.98389C1.34788 4.80939 4.73175 1.42479 8.90697 1.42479C13.0815 1.42479 16.4653 4.80867 16.4653 8.98389C16.4653 13.1591 13.0815 16.543 8.90697 16.543Z" fill="white"/>
</g>
</g>
<defs>
<clipPath id="clip0_695_52">
<rect width="23" height="23" fill="white"/>
</clipPath>
</defs>
</svg>
